<?xml version="1.0" encoding="utf-8"?>
<!-- Generator: Adobe Illustrator 24.0.1, SVG Export Plug-In . SVG Version: 6.00 Build 0)  -->
<svg version="1.1" id="Layer_2_1_" xmlns="http://www.w3.org/2000/svg" xmlns:xlink="http://www.w3.org/1999/xlink" x="0px" y="0px"
	 viewBox="0 0 1000 1000" style="enable-background:new 0 0 1000 1000;" xml:space="preserve">
<style type="text/css">
	.st0{fill:#FFFFFF;}
	.st1{fill:#484A4F;}
	.st2{fill:#C6C6C6;stroke:#FFFFFF;stroke-width:20;stroke-miterlimit:10;}
	.st3{fill:#C6C6C6;}
</style>
<g id="FundoBranco">
	<path class="st0" d="M655.69,1000H344.31C154.15,1000,0,845.85,0,655.69V344.31C0,154.15,154.15,0,344.31,0h311.38
		C845.85,0,1000,154.15,1000,344.31v311.38C1000,845.85,845.85,1000,655.69,1000z"/>
</g>
<g>
	<path class="st1" d="M708.38,37c34.39,0,67.73,6.73,99.1,19.99c30.32,12.82,57.55,31.19,80.94,54.58
		c23.4,23.4,41.76,50.63,54.58,80.94c13.27,31.37,19.99,64.71,19.99,99.1v416.77c0,34.39-6.73,67.73-19.99,99.1
		c-12.82,30.32-31.19,57.55-54.58,80.94c-23.4,23.4-50.63,41.76-80.94,54.58c-31.37,13.27-64.71,19.99-99.1,19.99H291.62
		c-34.39,0-67.73-6.73-99.1-19.99c-30.31-12.82-57.55-31.19-80.94-54.58c-23.4-23.4-41.76-50.63-54.58-80.94
		c-13.27-31.37-20-64.71-20-99.1V291.62c0-34.39,6.73-67.73,19.99-99.1c12.82-30.32,31.19-57.55,54.58-80.94
		c23.4-23.4,50.63-41.76,80.94-54.58c31.38-13.27,64.72-20,99.11-20H708.38 M708.38,0H291.62C130.56,0,0,130.56,0,291.62v416.77
		C0,869.44,130.56,1000,291.62,1000h416.77C869.44,1000,1000,869.44,1000,708.38V291.62C1000,130.56,869.44,0,708.38,0L708.38,0z"/>
</g>
<g>
	<path class="st1" d="M541.42,249.52c-10.98-42.62-29.06-84.59-89.75-84.59c-50.36,0-67.8,36.8-67.8,70.38
		c0,44.55,28.41,67.15,82,94.92c77.48,40.03,111.06,69.73,111.06,131.08c0,67.8-58.76,119.45-142.05,119.45
		c-38.74,0-72.32-10.98-98.79-21.31c-5.17-18.08-12.91-61.99-17.43-96.85l20.02-5.17c12.91,43.26,41.32,99.44,108.48,99.44
		c46.49,0,74.9-32.29,74.9-74.25c0-49.72-26.47-69.73-83.29-100.73c-67.8-36.8-105.89-67.8-105.89-127.85
		c0-57.47,47.78-111.7,133.01-111.7c36.16,0,71.67,9.69,85.23,12.27c2.58,23.25,5.17,49.07,10.33,91.04L541.42,249.52z"/>
</g>
<g>
	<g>
		<g>
			<path class="st2" d="M651.23,521.1c-10.98-42.62-29.06-84.59-89.75-84.59c-50.36,0-67.8,36.8-67.8,70.38
				c0,44.55,28.41,67.15,82,94.92c77.48,40.03,111.06,69.73,111.06,131.08c0,67.8-58.76,119.45-142.05,119.45
				c-38.74,0-72.32-10.98-98.79-21.31c-5.17-18.08-12.91-61.99-17.43-96.85l20.02-5.17c12.91,43.26,41.32,99.44,108.48,99.44
				c46.49,0,74.9-32.29,74.9-74.25c0-49.72-26.47-69.73-83.29-100.73c-67.8-36.8-105.89-67.8-105.89-127.85
				c0-57.47,47.78-111.71,133.01-111.71c36.16,0,71.67,9.69,85.23,12.27c2.58,23.25,5.17,49.07,10.33,91.04L651.23,521.1z"/>
		</g>
	</g>
	<g>
		<g>
			<path class="st3" d="M651.23,521.1c-10.98-42.62-29.06-84.59-89.75-84.59c-50.36,0-67.8,36.8-67.8,70.38
				c0,44.55,28.41,67.15,82,94.92c77.48,40.03,111.06,69.73,111.06,131.08c0,67.8-58.76,119.45-142.05,119.45
				c-38.74,0-72.32-10.98-98.79-21.31c-5.17-18.08-12.91-61.99-17.43-96.85l20.02-5.17c12.91,43.26,41.32,99.44,108.48,99.44
				c46.49,0,74.9-32.29,74.9-74.25c0-49.72-26.47-69.73-83.29-100.73c-67.8-36.8-105.89-67.8-105.89-127.85
				c0-57.47,47.78-111.71,133.01-111.71c36.16,0,71.67,9.69,85.23,12.27c2.58,23.25,5.17,49.07,10.33,91.04L651.23,521.1z"/>
		</g>
	</g>
</g>
</svg>
